<?xml version="1.0" standalone="no"?>
<!DOCTYPE svg PUBLIC "-//W3C//DTD SVG 20010904//EN"
 "http://www.w3.org/TR/2001/REC-SVG-20010904/DTD/svg10.dtd">
<svg version="1.0" xmlns="http://www.w3.org/2000/svg"
 width="500.000000pt" height="500.000000pt" viewBox="0 0 500.000000 500.000000"
 preserveAspectRatio="xMidYMid meet">

<g transform="translate(0.000000,500.000000) scale(0.100000,-0.100000)"
fill="#000000" stroke="none">
<path d="M1550 4213 c-136 -20 -262 -70 -381 -151 -161 -108 -270 -236 -397
-462 -90 -163 -114 -217 -166 -375 -52 -158 -69 -270 -70 -465 0 -147 3 -177
27 -275 36 -145 72 -254 113 -340 59 -127 201 -273 324 -333 82 -40 172 -38
260 7 86 44 146 96 213 184 79 104 138 217 175 337 42 138 53 202 55 327 l2
103 37 0 38 0 0 -85 c0 -121 36 -344 72 -445 43 -121 43 -121 14 -208 -51
-152 -141 -269 -317 -412 -69 -56 -126 -126 -190 -231 -61 -102 -73 -144 -66
-236 12 -167 121 -291 430 -491 193 -125 519 -224 783 -238 297 -16 672 79
920 233 223 138 346 249 402 361 34 70 37 83 37 161 0 84 -1 89 -48 176 -64
118 -128 198 -229 283 -117 97 -171 156 -222 238 -44 72 -96 198 -96 236 0 11
15 66 34 121 19 56 40 138 46 182 26 184 29 213 30 283 l0 72 33 0 34 0 6
-113 c7 -124 26 -233 58 -324 11 -32 22 -66 24 -76 5 -24 66 -135 114 -207
129 -196 332 -306 468 -255 110 41 263 175 331 288 71 117 148 362 172 547 29
217 -29 541 -141 789 -50 110 -177 332 -227 396 -162 208 -384 351 -607 392
-138 25 -251 1 -396 -83 -166 -97 -342 -341 -435 -602 -21 -60 -33 -81 -43
-77 -18 7 -379 7 -390 1 -5 -3 -25 41 -46 97 -95 260 -269 493 -437 587 -128
71 -245 99 -348 83z m175 -27 l40 -12 -59 -27 c-78 -36 -159 -106 -184 -160
-26 -54 -37 -107 -23 -107 6 0 11 6 11 13 0 93 118 214 246 253 46 14 47 13
118 -24 40 -20 101 -66 139 -102 l69 -65 -69 -1 c-100 -1 -191 -34 -256 -94
-29 -26 -49 -51 -45 -55 3 -3 26 13 50 37 67 67 195 108 292 94 41 -7 50 -13
91 -69 26 -34 64 -95 87 -135 l40 -73 -38 8 c-56 12 -202 9 -250 -5 -46 -13
-124 -76 -124 -100 0 -11 14 -2 42 26 27 28 58 47 91 57 61 18 180 19 242 3
44 -12 45 -13 80 -100 19 -49 35 -92 35 -96 0 -5 -39 -19 -87 -31 -87 -21
-228 -82 -283 -121 -15 -11 -33 -20 -38 -20 -6 0 -20 33 -32 73 -44 145 -150
307 -242 370 -81 56 -167 87 -238 87 -156 0 -359 -60 -469 -138 -80 -57 -194
-163 -233 -216 -15 -21 -28 -35 -28 -31 0 14 126 240 172 309 45 68 140 187
145 182 2 -2 -8 -28 -23 -59 -14 -32 -24 -69 -22 -84 4 -25 5 -24 17 17 39
134 137 242 291 320 l45 23 -28 -34 c-48 -58 -77 -129 -77 -186 0 -29 5 -53
10 -53 6 0 10 24 10 53 0 29 9 70 19 94 23 50 93 129 134 150 72 37 254 53
332 29z m1982 -10 c65 -17 104 -45 153 -108 43 -54 60 -100 60 -166 0 -26 4
-41 10 -37 32 20 -5 155 -61 219 -22 25 -37 46 -32 46 5 0 43 -20 86 -45 126
-74 229 -198 243 -292 3 -24 11 -43 16 -43 16 0 2 67 -26 124 l-25 51 51 -55
c64 -71 141 -187 214 -325 l58 -110 -69 73 c-187 199 -391 295 -630 296 -104
1 -114 -1 -178 -31 -38 -18 -86 -47 -107 -63 -81 -64 -188 -238 -225 -363 -9
-31 -21 -59 -26 -62 -5 -4 -23 3 -39 15 -55 39 -194 98 -282 121 -49 12 -88
27 -87 33 0 6 14 49 32 96 31 81 34 85 72 96 52 16 170 17 236 3 40 -9 64 -22
101 -57 57 -53 65 -39 10 16 -24 24 -56 44 -88 53 -54 16 -200 19 -253 5 l-34
-8 42 78 c54 100 118 183 150 196 36 14 133 3 208 -22 45 -16 75 -35 108 -68
54 -55 71 -50 21 6 -61 67 -227 124 -309 106 l-30 -6 22 28 c35 47 129 120
195 153 60 31 61 31 111 16 102 -30 218 -133 231 -204 10 -54 23 -73 24 -33 0
50 -24 96 -77 147 -52 51 -137 105 -165 105 -31 0 -19 18 20 29 46 13 200 6
269 -13z m-2161 -412 c77 -50 150 -191 141 -271 -5 -50 -49 -113 -78 -113 -16
0 -18 3 -9 19 5 11 10 46 10 78 0 113 -71 212 -197 277 l-68 35 80 1 c71 0 86
-3 121 -26z m2204 -6 c-85 -44 -144 -99 -174 -161 -30 -63 -42 -141 -27 -181
22 -55 -16 -46 -56 14 -34 50 -31 110 12 198 36 75 81 129 125 149 14 7 61 12
104 12 l79 1 -63 -32z m-2363 -12 c121 -58 190 -139 208 -243 9 -54 -9 -113
-35 -113 -33 0 -50 12 -50 36 0 47 -49 134 -107 193 -55 55 -168 121 -207 121
-33 0 -15 19 27 28 70 16 90 13 164 -22z m2542 22 c49 -11 69 -28 34 -28 -39
0 -163 -73 -213 -126 -54 -57 -100 -142 -100 -186 0 -21 -6 -28 -31 -33 -43
-10 -54 6 -53 78 0 117 67 209 198 272 79 38 92 40 165 23z m-2231 -92 c56
-51 92 -125 92 -189 0 -81 -47 -143 -99 -130 -41 9 -45 19 -22 49 28 35 43 93
35 135 -8 41 -44 121 -75 168 l-23 34 24 -13 c12 -7 43 -31 68 -54z m1817 8
c-71 -118 -81 -202 -31 -272 28 -39 26 -46 -16 -56 -21 -5 -34 0 -59 22 -28
25 -33 37 -37 90 -7 99 30 168 132 243 21 16 40 29 42 29 1 0 -13 -25 -31 -56z
m-2273 22 c81 -33 153 -91 198 -159 36 -53 60 -121 48 -133 -11 -11 -154 21
-171 38 -27 27 -106 65 -174 82 -76 20 -215 21 -278 1 -27 -8 -51 -13 -52 -11
-5 4 90 85 153 129 112 81 178 93 276 53z m2857 4 c53 -24 163 -105 210 -154
l34 -35 -48 15 c-62 18 -205 18 -278 -1 -65 -17 -146 -55 -173 -82 -10 -10
-47 -23 -83 -30 -101 -18 -102 -17 -95 15 28 113 123 215 254 269 68 28 122
29 179 3z m-2255 -238 c30 -59 70 -173 63 -177 -1 -1 -37 9 -79 23 l-77 24 27
41 c22 32 27 52 27 99 0 32 1 58 2 58 2 0 18 -30 37 -68z m-693 42 c30 -9 77
-28 104 -42 l50 -26 -65 -7 c-82 -8 -99 -15 -106 -46 -7 -26 -1 -97 11 -125 6
-16 1 -18 -47 -18 -65 0 -258 -33 -348 -60 -36 -11 -85 -33 -110 -49 -24 -17
-46 -29 -47 -27 -7 7 51 174 75 216 67 118 116 164 202 191 47 14 224 10 281
-7z m2232 -138 l27 -34 -69 -21 c-64 -19 -91 -25 -91 -18 1 18 37 113 62 165
l33 67 6 -62 c4 -45 13 -71 32 -97z m959 122 c51 -24 64 -36 112 -110 36 -55
64 -115 84 -178 17 -52 29 -97 27 -99 -2 -1 -19 9 -38 23 -19 14 -60 35 -92
46 -81 28 -304 70 -371 70 -54 0 -56 1 -49 23 18 60 17 112 -3 137 -16 20 -30
25 -86 28 -36 2 -64 8 -61 12 7 12 94 51 145 66 28 8 89 12 160 11 101 -2 122
-5 172 -29z m-1627 -68 c175 -13 360 -74 465 -151 24 -19 28 -19 70 -4 101 36
234 70 465 121 115 25 226 31 269 14 58 -22 22 -155 -78 -286 -63 -84 -211
-223 -272 -256 l-50 -27 -32 64 c-48 98 -78 83 -89 -45 l-6 -68 -34 -7 c-21
-4 -40 -2 -49 6 -12 10 -14 -3 -14 -87 0 -126 -33 -346 -67 -449 -48 -148
-174 -370 -270 -476 -22 -24 -30 -39 -21 -39 23 0 195 241 227 318 8 18 16 32
20 32 3 0 14 -27 24 -59 46 -147 141 -272 312 -413 85 -70 168 -175 226 -287
59 -113 49 -243 -28 -358 -40 -60 -127 -139 -223 -203 -36 -23 -69 -48 -75
-54 -38 -43 -249 -144 -408 -195 -192 -61 -283 -75 -497 -75 -165 0 -211 3
-300 23 -208 45 -427 129 -556 213 -140 90 -215 148 -282 214 -94 94 -124 157
-130 274 -4 83 -3 87 36 163 60 115 135 210 227 287 176 147 252 247 305 399
l27 78 24 -46 c13 -25 54 -92 91 -148 38 -56 68 -104 68 -108 0 -4 -70 -86
-155 -183 -156 -179 -168 -198 -149 -247 4 -10 187 -175 408 -368 221 -193
424 -372 453 -399 60 -56 100 -63 144 -25 15 12 138 139 274 282 136 143 267
279 291 303 24 23 51 56 60 73 15 29 14 35 -1 75 -14 36 -63 87 -283 290 -147
136 -268 251 -270 256 -2 4 6 8 17 8 33 0 127 39 146 60 24 26 13 25 -38 -4
-93 -53 -229 -64 -341 -26 l-69 23 -61 -21 c-34 -11 -78 -23 -98 -26 -58 -8
-167 12 -228 41 -76 37 -79 38 -47 9 15 -14 27 -29 27 -34 0 -4 -13 -21 -30
-37 -37 -35 -40 -33 -120 92 -68 103 -125 221 -158 323 -32 97 -65 321 -66
438 0 91 -7 124 -18 91 -3 -8 -16 -10 -39 -5 l-35 6 -11 81 c-16 123 -45 132
-89 29 -15 -33 -30 -60 -34 -60 -4 0 -36 19 -70 42 -64 42 -191 167 -254 248
-87 113 -125 243 -81 277 27 20 199 11 310 -17 44 -11 112 -27 150 -35 39 -8
128 -33 199 -54 127 -39 130 -39 155 -22 106 75 294 138 446 150 143 12 157
12 290 1z m-1540 -219 c3 -10 21 -39 39 -65 l34 -48 -31 -71 c-17 -40 -32 -73
-32 -74 0 -1 -31 2 -68 7 -159 23 -341 -43 -467 -169 -37 -36 -74 -77 -83 -91
-15 -24 -16 -22 -16 63 -1 118 18 276 35 305 24 38 94 81 165 103 102 31 255
57 341 58 66 1 77 -1 83 -18z m3086 -7 c162 -31 222 -53 277 -101 l43 -38 14
-120 c8 -65 15 -153 14 -195 0 -73 -1 -74 -16 -50 -9 14 -46 54 -83 90 -129
128 -308 193 -467 170 -37 -5 -68 -8 -69 -7 -1 1 -15 34 -32 74 l-31 72 42 65
42 65 67 0 c38 1 127 -11 199 -25z m-2942 -186 l53 -57 -26 -32 c-56 -66 -70
-107 -74 -218 -3 -61 0 -119 7 -142 14 -47 65 -92 97 -86 19 3 21 1 14 -12 -4
-9 -17 -24 -27 -33 -17 -16 -21 -16 -48 -2 -51 26 -72 54 -101 128 -35 93 -44
247 -20 349 14 58 63 175 70 165 1 -1 26 -29 55 -60z m2607 5 c64 -145 70
-304 18 -454 -24 -69 -35 -87 -68 -111 -45 -32 -67 -35 -88 -10 -27 31 -29 40
-8 35 30 -8 70 24 92 74 17 39 20 61 16 147 -5 110 -25 169 -77 225 l-27 29
56 61 c30 33 56 61 58 61 1 0 14 -26 28 -57z m-2791 -82 c28 -5 39 -12 36 -22
-3 -8 -5 -74 -6 -148 l-2 -134 -51 -13 c-240 -62 -398 -215 -420 -406 l-8 -63
-31 85 c-33 91 -78 263 -92 351 -8 52 -7 55 30 110 53 78 118 132 224 185 120
59 213 76 320 55z m536 -30 c4 -18 10 -86 14 -151 l7 -118 -27 -18 c-57 -37
-135 -11 -135 45 0 33 111 282 124 278 6 -2 14 -18 17 -36z m1902 -94 c32 -68
57 -135 57 -149 0 -54 -75 -80 -136 -48 l-27 15 7 127 c4 71 9 135 11 143 3 8
7 22 10 31 8 26 20 9 78 -119z m621 123 c172 -28 406 -211 406 -317 0 -71 -87
-386 -125 -453 -13 -24 -14 -21 -15 43 0 87 -31 155 -106 237 -82 88 -174 140
-309 174 l-50 13 -2 129 c-1 71 -3 138 -5 149 -2 16 4 21 32 26 55 10 110 10
174 -1z m-2745 -42 c32 -24 73 -51 90 -60 l32 -17 -35 -68 c-18 -37 -52 -107
-75 -155 -32 -69 -46 -89 -67 -94 -37 -9 -68 9 -90 53 -27 57 -25 211 5 278
18 41 66 105 78 105 2 0 29 -19 62 -42z m2360 5 c45 -55 61 -112 61 -221 0
-79 -4 -101 -22 -133 -12 -22 -32 -42 -44 -45 -50 -13 -64 3 -141 163 -41 85
-73 156 -71 158 2 1 21 12 43 23 22 12 60 37 85 56 25 20 48 36 52 36 3 0 20
-17 37 -37z m-2209 -313 c23 0 51 5 62 11 21 11 21 10 14 -61 -8 -90 -17 -107
-63 -119 -64 -18 -120 7 -148 65 -16 34 -16 37 11 99 l27 64 27 -29 c22 -24
36 -30 70 -30z m2080 0 c28 -56 29 -62 16 -92 -23 -54 -59 -81 -110 -81 -67 0
-93 21 -101 85 -3 29 -9 66 -12 82 -5 25 -3 28 13 21 61 -26 129 -16 146 20 6
14 13 25 14 25 2 0 17 -27 34 -60z m-2477 -45 c16 -43 37 -79 47 -85 18 -10
14 -16 -43 -63 -78 -67 -159 -186 -187 -274 -25 -77 -31 -229 -12 -276 l12
-27 -29 15 c-51 26 -154 114 -204 173 -74 87 -80 103 -75 196 3 68 10 91 38
144 61 115 188 209 343 253 34 10 67 18 72 18 6 1 23 -33 38 -74z m2921 34
c142 -52 238 -132 292 -247 33 -70 41 -187 17 -240 -24 -50 -149 -179 -222
-228 -36 -24 -66 -42 -68 -40 -2 2 1 15 7 30 14 38 12 182 -4 241 -29 109
-113 237 -207 313 -44 36 -48 42 -32 50 10 6 31 45 47 87 29 76 29 76 60 69
17 -3 66 -19 110 -35z m-2613 -170 c14 -7 45 -9 81 -6 32 3 58 2 58 -3 0 -20
-68 -193 -83 -210 -20 -24 -85 -27 -125 -6 -58 31 -112 112 -112 170 0 14 10
33 23 43 13 10 36 37 51 60 l28 43 29 -40 c16 -21 38 -44 50 -51z m2244 50
c15 -23 38 -52 52 -63 22 -19 25 -27 18 -64 -8 -49 -53 -115 -98 -142 -36 -23
-105 -26 -130 -7 -16 11 -87 185 -87 213 0 9 14 11 53 7 66 -7 110 13 139 63
11 19 21 34 23 34 1 0 15 -19 30 -41z m-2442 -43 c17 -13 17 -15 -5 -30 -16
-11 -19 -19 -11 -24 6 -4 15 -21 18 -37 22 -92 97 -162 185 -174 l50 -6 -42
-65 c-61 -94 -181 -211 -250 -243 -65 -31 -130 -43 -182 -33 -32 6 -37 11 -51
58 -29 97 -10 232 47 341 34 65 184 227 209 227 8 0 22 -7 32 -14z m2655 -63
c125 -126 174 -232 175 -383 1 -146 -26 -179 -136 -166 -118 13 -245 110 -348
264 l-51 77 51 6 c90 12 167 85 178 168 4 25 11 41 19 41 21 0 17 13 -8 29
-21 13 -21 14 -3 27 10 8 25 14 33 14 7 0 48 -35 90 -77z m-1336 -479 c37 -12
90 -59 294 -257 387 -376 424 -411 429 -406 2 3 -55 64 -128 135 -72 71 -218
213 -324 317 l-191 187 61 0 62 -1 262 -242 c144 -133 271 -254 282 -269 30
-38 35 -78 14 -109 -10 -15 -154 -169 -321 -343 -275 -286 -307 -316 -335
-316 -28 1 -94 55 -477 390 -245 215 -449 401 -454 414 -15 40 1 67 110 191
157 177 218 246 251 284 l29 33 54 -16 c72 -21 190 -20 260 4 69 23 67 23 122
4z"/>
<path d="M1994 2732 c-51 -37 -74 -85 -74 -154 0 -97 75 -217 151 -239 32 -10
46 -9 82 5 126 48 158 196 70 324 -41 60 -74 81 -141 88 -41 5 -52 2 -88 -24z
m140 -6 c43 -18 92 -79 112 -139 30 -90 -4 -184 -80 -218 -52 -24 -83 -24
-121 0 -38 23 -95 118 -106 174 -25 133 79 231 195 183z"/>
<path d="M1990 2575 c-10 -12 -9 -20 4 -40 22 -33 54 -45 121 -45 73 0 103 30
72 71 -18 24 -179 36 -197 14z"/>
<path d="M3010 2738 c-79 -41 -139 -157 -125 -243 18 -115 126 -190 218 -152
42 18 99 91 122 156 58 168 -72 312 -215 239z m150 -24 c43 -37 60 -75 60
-135 0 -62 -37 -142 -88 -192 -28 -27 -40 -32 -82 -32 -33 0 -57 6 -77 21 -38
27 -73 99 -73 149 0 72 58 167 125 203 38 21 101 14 135 -14z"/>
<path d="M3035 2581 c-54 -5 -61 -9 -70 -34 -8 -24 -6 -31 10 -43 26 -19 113
-18 155 4 28 14 35 23 35 47 0 27 -3 30 -35 31 -19 1 -62 -2 -95 -5z"/>
<path d="M2351 2286 c-24 -28 18 -69 133 -130 38 -20 80 -36 93 -36 34 0 173
73 206 108 16 17 27 38 25 49 -4 20 -24 21 -183 12 -44 -2 -121 0 -171 4 -76
8 -92 6 -103 -7z"/>
<path d="M2720 1557 c-70 -46 -92 -135 -55 -222 8 -21 14 -39 13 -40 -2 -1
-40 -6 -86 -12 -126 -16 -197 -72 -197 -155 0 -82 90 -121 175 -75 35 18 55
40 90 97 55 89 69 100 104 77 41 -28 106 -116 118 -163 13 -47 35 -62 23 -16
-14 58 -49 113 -105 166 l-59 54 43 49 c74 82 96 121 96 170 0 85 -84 122
-160 70z m104 2 c37 -17 51 -68 32 -113 -14 -34 -124 -174 -137 -175 -16 -2
-53 107 -53 154 0 63 24 102 79 126 48 22 47 22 79 8z m-135 -298 c11 -7 6
-21 -25 -72 -68 -115 -116 -148 -189 -135 -85 16 -85 116 -1 174 51 35 180 55
215 33z"/>
</g>
</svg>
